<svg xmlns="http://www.w3.org/2000/svg" width="802.725" height="369.57" viewBox="0 0 802.725 369.57"><g transform="translate(-557 -169.097)"><path d="M150.12-60.882H99.8c0,16.958-10.842,21.962-20.85,21.962-14.734,0-23.074-9.73-23.074-32.248s8.618-31.97,23.074-31.97c9.73,0,21.128,4.17,21.128,23.352h50.04c0-42.256-27.8-64.774-71.724-64.774-58.936,0-70.89,38.92-70.89,73.948C7.506-35.862,19.182,2.78,79.23,2.78,122.042,2.78,150.12-18.626,150.12-60.882ZM300.518,0V-80.342c0-36.14-2.78-64.218-53.1-64.218-13.9,0-27.244,6.95-33.638,13.9v-65.886H162.074V0h51.708l.556-78.118c0-20.016,4.726-24.186,17.514-24.186,13.066,0,16.68,4.17,16.68,24.186V0Zm67.554,0V-141.78H315.53V0Zm5.838-182.368c0-23.63-13.344-26.132-32.248-26.132-18.626,0-32.248,2.5-32.248,26.132,0,23.352,13.622,26.41,32.248,26.41C360.566-155.958,373.91-159.572,373.91-182.368ZM591.028,0V-88.126c0-32.8-5-56.434-44.758-56.434-18.9,0-34.75,8.062-41.978,18.9-10.008-14.456-28.356-18.9-43.646-18.9-17.236,0-33.638,9.73-39.2,19.46l-8.618-16.68H383.64V0H435.9V-85.068c0-9.174,2.78-16.958,13.066-16.958,10.564,0,12.232,8.34,12.232,16.958V0h52.542V-85.068c0-9.174,2.224-16.958,12.51-16.958,9.73,0,12.51,8.34,12.51,16.958V0Zm161.24-70.89c0-33.36-12.51-73.67-62.55-73.67-21.406,0-37.252,10.564-44.48,19.46l-8.618-16.68H607.43V55.6h51.708V-9.452C669.7-2.224,680.544,2.78,699.448,2.78,742.26,2.78,752.268-37.53,752.268-70.89Zm-52.82,0c0,18.07-.556,31.692-20.016,31.692-20.294,0-20.572-14.178-20.572-31.692,0-18.348,1.112-31.97,20.85-31.97C698.892-102.86,699.448-88.96,699.448-70.89Z" transform="translate(549.494 377.597)" fill="#242422"/><path d="M96.25-29.575,63.875-29.75c-.525,5.95-4.2,10.325-13.125,10.325-9.625,0-14.175-5.95-14.875-18.375H95.55C95.55-54.425,98-91,51.8-91,12.425-91,5.075-66.675,5.075-44.8S11.9,1.75,51.975,1.75C82.6,1.75,95.2-11.725,96.25-29.575ZM63.875-54.425h-28C36.925-66.5,41.3-70.175,50.05-70.175,59.5-70.175,62.825-65.975,63.875-54.425Zm121.975,28.7c0-34.65-54.075-23.1-54.075-39.2,0-4.2,2.625-7,10.325-7,7.525,0,10.5,4.55,10.5,13.3h30.975C183.575-81.55,173.25-91,141.925-91,110.25-91,99.75-78.05,99.75-63.35c0,32.375,53.9,21.35,53.9,37.975,0,5.075-3.85,7.7-10.675,7.7-9.275,0-12.6-5.25-12.6-14.7H98.35c0,24.15,15.05,34.125,44.975,34.125C173.6,1.75,185.85-13.3,185.85-25.725Zm88.375,0c0-34.65-54.075-23.1-54.075-39.2,0-4.2,2.625-7,10.325-7,7.525,0,10.5,4.55,10.5,13.3H271.95C271.95-81.55,261.625-91,230.3-91c-31.675,0-42.175,12.95-42.175,27.65,0,32.375,53.9,21.35,53.9,37.975,0,5.075-3.85,7.7-10.675,7.7-9.275,0-12.6-5.25-12.6-14.7H186.725c0,24.15,15.05,34.125,44.975,34.125C261.975,1.75,274.225-13.3,274.225-25.725Zm94.15-3.85L336-29.75c-.525,5.95-4.2,10.325-13.125,10.325-9.625,0-14.175-5.95-14.875-18.375h59.675c0-16.625,2.45-53.2-43.75-53.2C284.55-91,277.2-66.675,277.2-44.8s6.825,46.55,46.9,46.55C354.725,1.75,367.325-11.725,368.375-29.575ZM336-54.425H308c1.05-12.075,5.425-15.75,14.175-15.75C331.625-70.175,334.95-65.975,336-54.425ZM462.7,0V-51.1c0-22.4-3.675-39.9-35.175-39.9-12.6,0-22.4,5.425-28.175,12.6l-5.425-10.85H375.55V0h32.9V-49.875c0-11.725,2.975-14.7,11.025-14.7,8.225,0,10.5,2.625,10.5,14.7V0Zm72.8,1.225v-25.9q-5.25.525-8.925.525c-8.4,0-10.675-2.45-10.675-9.1V-63h19.6V-89.25H515.2V-112H482.475v22.4l-14.7,7V-63h14.7v36.225c0,19.6,9.625,28.525,39.9,28.525Q528.413,1.75,535.5,1.225ZM574.525,0V-89.25H541.45V0ZM578.2-114.8c0-14.875-8.4-16.45-20.3-16.45-11.725,0-20.3,1.575-20.3,16.45,0,14.7,8.575,16.625,20.3,16.625C569.8-98.175,578.2-100.45,578.2-114.8ZM671.475,0V-50.225C671.475-72.1,665.35-91,626.15-91c-33.775,0-42.7,16.275-42.7,33.075h32.375c0-8.4,2.45-12.95,11.2-12.95,9.45,0,11.55,4.025,11.55,16.45-41.65,2.8-57.925,10.15-57.925,30.1,0,18.2,15.575,26.075,35,26.075,14.7,0,24.675-4.55,31.85-14L653.275,0ZM638.4-38.85c0,13.475-5.775,19.775-13.3,19.775-7.7,0-10.85-3.15-10.85-8.75,0-4.025,2.625-8.4,10.85-9.625ZM714.175,0V-123.725H681.8V0ZM807.8-25.725c0-34.65-54.075-23.1-54.075-39.2,0-4.2,2.625-7,10.325-7,7.525,0,10.5,4.55,10.5,13.3h30.975C805.525-81.55,795.2-91,763.875-91,732.2-91,721.7-78.05,721.7-63.35c0,32.375,53.9,21.35,53.9,37.975,0,5.075-3.85,7.7-10.675,7.7-9.275,0-12.6-5.25-12.6-14.7H720.3c0,24.15,15.05,34.125,44.975,34.125C795.55,1.75,807.8-13.3,807.8-25.725Z" transform="translate(551.925 536.917)" fill="#242422"/><g transform="translate(-7.453 -2.888)"><path d="M32.075-5.4A7.414,7.414,0,0,1,28.02-4.188a7.456,7.456,0,0,1-7.068-5.159A13.069,13.069,0,0,0,11.208,3.284V5.152A1.87,1.87,0,0,1,9.34,3.284v-14.01A4.675,4.675,0,0,0,4.67-15.4,4.675,4.675,0,0,0,0-10.726v2.8A1.868,1.868,0,0,0,1.868-6.056,1.868,1.868,0,0,0,3.736-7.924v-2.8a.934.934,0,0,1,.934-.934.934.934,0,0,1,.934.934V3.284a5.61,5.61,0,0,0,5.6,5.6h14.01a.934.934,0,0,0,.934-.934V7.02a1.868,1.868,0,0,0-1.868-1.868H20.548L29.635-.907,31.66,5.165l.1.59v2.2a.934.934,0,0,0,.934.934h1.868a.934.934,0,0,0,.934-.934v-2.2A5.614,5.614,0,0,0,35.2,3.982Zm2.483-11.863H33.28A5.587,5.587,0,0,0,28.02-21a5.587,5.587,0,0,0-5.261,3.736H21.482a2.8,2.8,0,0,0-2.8,2.8,2.8,2.8,0,0,0,2.8,2.8h.934a5.6,5.6,0,0,0,5.6,5.6,5.6,5.6,0,0,0,5.6-5.6h.934a2.8,2.8,0,0,0,2.8-2.8A2.8,2.8,0,0,0,34.557-17.264Z" transform="translate(877.453 217.268)" fill="#ffe65f"/><circle cx="1.245" cy="1.245" r="1.245" transform="translate(901.795 200.916)" fill="#242422"/><circle cx="1.245" cy="1.245" r="1.245" transform="translate(905.531 200.916)" fill="#242422"/></g></g></svg>