<svg xmlns="http://www.w3.org/2000/svg" width="789.526" height="40.017" viewBox="0 0 789.526 40.017"><g transform="translate(-559 -4526)"><g transform="translate(838 4531)"><path d="M322.191,32.2H316V45.85h6.478c3.075,0,3.2-3.977,3.2-3.977V36.584C325.676,31.951,322.191,32.2,322.191,32.2Z" transform="translate(-186.436 -23.914)" fill="#242422"/><path d="M289.7,12V42.3h29.767V12Zm17.467,25.462c-7.462,0-10.824.082-10.824.082V16.92h8.815s9.1-.984,9.1,7.175v5.74S314.588,37.462,307.167,37.462Z" transform="translate(-170.919 -12)" fill="#242422"/><path d="M180.415,34.824c0-2.911-3.075-2.46-3.075-2.46H171.6v5.617s3.075-.082,5.617-.082C179.8,37.94,180.415,37.366,180.415,34.824Z" transform="translate(-101.242 -23.999)" fill="#242422"/><path d="M145.1,42.3h29.767V12H145.1Zm6.847-25.462h11.808a4.851,4.851,0,0,1,5.125,5.289c0,5.576-3.075,5.822-3.075,5.822s3.075.205,3.075,4.469v4.715h-4.1V32.665s0-3.485-2.337-3.485-6.478.082-6.478.082v7.913h-3.977l-.041-20.337Z" transform="translate(-85.607 -12)" fill="#242422"/><path d="M0,42.3H31V12H0ZM6.642,16.92,9.471,32.5,13.12,16.92,17.59,17l3.608,15.7L23.9,16.879H27.84L23.658,37.3H18.574l-3.28-14.842L11.726,37.38H6.765L2.542,16.92Z" transform="translate(0 -12)" fill="#242422"/><path d="M92.2,27.085h5V40.739h-5v3.485h14.391V40.739h-5.453V27.085h5.453V23.6H92.2Z" transform="translate(-54.397 -18.844)" fill="#242422"/><path d="M231,27.162h2.829V40.9H231V44.26h17.426V37.617H244.94V40.9h-7.38V35.321h5.453V32H237.56V27.162h7.093v3.28h3.772V23.8H231Z" transform="translate(-136.287 -18.962)" fill="#242422"/></g><g transform="translate(1250 4532)"><path d="M40.017,20.009A20.009,20.009,0,1,1,20.009,0,20.009,20.009,0,0,1,40.017,20.009" transform="translate(0 -6)" fill="#242422"/><path d="M108.4,9.175V2h3.239V8.232c0,1.23.123,2.419,1.763,2.419s1.763-1.189,1.763-2.419V2H118.4V9.175c0,2.788-1.763,4.305-4.961,4.305-3.362,0-5.043-1.517-5.043-4.305" transform="translate(-63.955 -1.18)" fill="#242422"/><path d="M134.8,11.486l1.558-2.132a3.573,3.573,0,0,0,2.665,1.312c.82,0,1.312-.369,1.312-1.025,0-.779-.738-1.025-1.927-1.394-1.64-.492-3.075-1.353-3.075-3.28,0-2.132,1.763-3.567,4.223-3.567a5.323,5.323,0,0,1,3.813,1.312l-1.476,2.132a2.964,2.964,0,0,0-2.214-.984c-.82,0-1.189.328-1.189.779,0,.7.861.9,1.763,1.189,1.845.574,3.239,1.394,3.239,3.485,0,2.173-1.558,3.772-4.346,3.772a5.876,5.876,0,0,1-4.346-1.6" transform="translate(-79.53 -0.826)" fill="#242422"/><path d="M163.557,9.093,162.7,6.387a8.88,8.88,0,0,1-.369-1.681h-.082a13.852,13.852,0,0,1-.369,1.681l-.861,2.706ZM160.523,2h3.526l4.182,11.275h-3.362l-.533-1.6h-4.264l-.492,1.6H156.3L160.523,2" transform="translate(-92.215 -1.18)" fill="#242422"/><path d="M111.347,37.524H108.6V34.9h8.733v2.624h-2.747v8.651h-3.239V37.524" transform="translate(-64.073 -20.591)" fill="#242422"/><path d="M139.561,40.263a2.877,2.877,0,1,0-5.74,0,2.875,2.875,0,1,0,5.74,0m-9.061,0a6.2,6.2,0,1,1,6.191,5.822,5.808,5.808,0,0,1-6.191-5.822" transform="translate(-76.993 -20.296)" fill="#242422"/><path d="M166.7,43.592h.7c2.05,0,3.157-.984,3.157-3.034s-1.107-3.034-3.157-3.034h-.7ZM163.5,34.9h4.141c3.977,0,6.273,2.132,6.273,5.617,0,3.444-2.337,5.617-6.273,5.617H163.5V34.9" transform="translate(-96.463 -20.591)" fill="#242422"/><path d="M195.016,41.993l-.861-2.706a8.881,8.881,0,0,1-.369-1.681H193.7a13.852,13.852,0,0,1-.369,1.681l-.861,2.706ZM191.982,34.9h3.526l4.182,11.275h-3.362l-.533-1.6h-4.223l-.492,1.6H187.8L191.982,34.9" transform="translate(-110.8 -20.591)" fill="#242422"/><path d="M215.682,42.157,211.5,34.9h3.526l1.517,2.788a7.056,7.056,0,0,1,.861,2.091h.082a8.07,8.07,0,0,1,.861-2.091l1.517-2.788h3.444l-4.223,7.257v4.018h-3.4V42.157" transform="translate(-124.782 -20.591)" fill="#242422"/></g><g transform="translate(1058 4528)"><g transform="translate(0 0)"><path d="M154.83,30.9c-.9,3.116-2.132,6.4-3.075,9.635,1.558-.041,3.362-.287,5.125-.451,1.558-.164,3.69-.082,4.756-.82.9-.615.9-1.968,1.6-2.911.41,1.476,1.64,3.485.779,4.961-.656,1.066-2.829,1.763-4.305,2.255-1.722.574-2.993,1.107-4.715,1.763a18.157,18.157,0,0,1-5.043,1.435c-2.419.246-5.7-.205-5.986-2.583a4.5,4.5,0,0,1,.574-2.419,18.507,18.507,0,0,1,3.936-5c1.025-1.066,2.05-2.05,3.034-2.952C152.616,32.827,153.723,31.843,154.83,30.9Zm-4.469,6.847a33.574,33.574,0,0,0-2.706,2.706c-.779.943-1.886,2.091-1.722,3.4.123.984,1.558,1.312,2.583,1.353,1.927.041,3.9-.82,5.74-1.435,1.886-.656,3.731-1.271,5.412-2.009-3.362,0-6.888.533-10.619.656C149.418,40.863,150.074,39.223,150.361,37.747Z" transform="translate(-84.835 -20.459)" fill="#242422"/><path d="M16.684,22.435a3.5,3.5,0,0,0,1.148-1.6,9.165,9.165,0,0,0,.861-1.927,8.416,8.416,0,0,0,.041-3.034c-.451-5.371,5.043-6.519,9.594-7.257A31.633,31.633,0,0,1,37.144,8.5a6.988,6.988,0,0,0,1.148.164,7.625,7.625,0,0,0,1.435-.9,8.072,8.072,0,0,1,3.034-1.271,15.319,15.319,0,0,1,4.879.246,65.467,65.467,0,0,1,13.243,3.649c.082.328-.533.861-.779,1.271,3.526-1.886,6.806-3.9,10.865-5.084a20.89,20.89,0,0,1,11.767-.123,8.88,8.88,0,0,0,1.476.492,15.134,15.134,0,0,0,2.255-.246c12.013-1.025,23.207,2.419,33.416,4.387a20.007,20.007,0,0,1-9.389,8c.41.41.9.574,1.23.984a4.2,4.2,0,0,1,.205,4.223c-.615,1.23-2.009,1.968-2.706,2.706,2.173-.164,4.346.246,4.633,2.3a5.965,5.965,0,0,1-1.886,4.838c-3.239,3.362-8.815,4.51-14.268,5.617a57.433,57.433,0,0,1-11.726,1.148c-3.485.041-8.938-.287-10.414-2.5A3.356,3.356,0,0,1,75.07,36.7c-4.223,1.8-8.979,3.69-14.719,3.854-5.9.164-11.357-1.271-13.366-5.289C46,37.032,45.18,38.8,43.5,39.779c-1.927,1.107-5.289,1.271-7.667.82-2.583-.492-4.592-1.6-4.838-4.305-.205-2.665.82-5.289,1.558-7.462.779-2.419,1.64-4.551,2.46-6.642a12.421,12.421,0,0,0-2.788,3.034,43.8,43.8,0,0,1-8.815,8.815,36.316,36.316,0,0,1-7.462,4.305c-2.5,1.066-6.56,2.46-9.717,1.23a2.41,2.41,0,0,1-1.6-3.034c.287-.82,1.271-1.271,1.353-2.132.041-.7-.615-1.558-1.025-2.255a58.119,58.119,0,0,1-3.321-6.314C.53,23.051-.905,19.032.161,15.629c.984-3.116,3.69-5,6.355-6.56A40.132,40.132,0,0,1,13.24,6.117c1.394-.492,3.813-1.312,4.879.123,1.476,2.009.205,5.863-.328,8A37.227,37.227,0,0,0,16.684,22.435ZM48.05,8.536A12.71,12.71,0,0,0,42.8,8.29a5.8,5.8,0,0,0-2.091.984c-.492.287-1.23,1.107-1.8,1.23a10.983,10.983,0,0,1-2.5-.246,28.692,28.692,0,0,0-12.218,1.148c-1.23.451-2.788,1.066-3.362,2.255-.7,1.394.164,3.321-.041,5.084a7.784,7.784,0,0,1-.861,2.3,29.062,29.062,0,0,1-2.5,3.813c-.369.492-1.107,1.517-1.8,1.394-.492-.082-.7-.943-.779-1.886-.246-4.141.82-7.626,1.476-11.111a18.15,18.15,0,0,0,.574-4.633c-.082-1.025-.533-1.435-1.394-1.394-1.435.082-3.157,1.066-4.51,1.6a25.373,25.373,0,0,0-3.936,2.05C4.63,12.39,2.375,14.358,1.965,17.761c-.369,3.485,1.025,6.6,2.3,9.1a19.529,19.529,0,0,0,2.173,3.731c.779.984,2.3,2.5,2.091,3.936C8.361,35.6,6.27,36.622,6.639,37.688c.164.533,1.435.7,2.5.7a16.129,16.129,0,0,0,7.585-2.173,39.83,39.83,0,0,0,7.79-5.248,51.59,51.59,0,0,0,6.56-6.478c1.968-2.378,3.608-4.961,5.617-7.462,1.435,3.936-.041,7.093-1.23,9.922-.615,1.476-1.107,2.87-1.681,4.51-.451,1.517-1.107,3.731-.7,5.371.574,2.091,3.731,2.5,6.232,2.3a6.628,6.628,0,0,0,4.223-1.6c2.05-1.968,3.075-4.756,4.305-7.38-.246,3.649,1.23,5.781,3.608,7.052a19.027,19.027,0,0,0,8.9,1.886c6.929,0,12.177-2.624,16.442-4.961a5.614,5.614,0,0,0,.164,3.321c.9,1.763,3.362,1.845,6.027,2.091,1.845.164,3.28.164,4.633.164a58.263,58.263,0,0,0,9.758-1.107c4.305-.82,8.938-2.132,12.218-4.305,1.107-.738,2.337-1.681,2.583-2.952.738-3.649-3.567-2.542-5.9-2.05-1.763.41-3.567.943-5.084,1.271-3.362.779-7.831,1.763-10.824.451-.492-.205-1.107-.533-1.107-1.23a1.856,1.856,0,0,1,.82-1.23c1.107-.861,2.952-1.107,4.879-1.23,4.8-.369,11.89.451,14.719-2.583.7-.738,1.435-2.542.574-3.854-.656-1.066-2.337-1.312-3.854-1.23-4.141.164-7.667,1.927-11.316,1.8-.656,0-1.927,0-2.132-.492-.246-.574.369-1.435.7-1.886A4.126,4.126,0,0,1,95.079,17.8a8.763,8.763,0,0,1,3.28,0c3.485.369,7.011.7,9.922.164a14.027,14.027,0,0,0,8.159-4.838,2.734,2.734,0,0,0,.779-1.025C108.527,10.545,98.6,8,89.052,8.126a9.931,9.931,0,0,0-4.428.9c-1.066.533-2.5,1.763-2.3,3.2.123.82,1.23,1.476,2.05,1.763,1.025.369,2.091.492,2.952.9-2.255.41-4.961,1.066-7.216,1.435.451-1.107,1.025-2.214,1.558-3.608.369-.943,1.189-2.952.9-4.1-.246-1.148-2.46-1.394-3.977-1.394a20.376,20.376,0,0,0-4.551.492c-8.61,1.8-15.17,6.56-20.788,11.193a44.206,44.206,0,0,1,4.018-6.97c.205-.287.533-.7.492-.9A70.517,70.517,0,0,0,48.05,8.536ZM96.1,19.442c.287-.123.984.082,1.23-.205C96.924,19.237,96.186,18.991,96.1,19.442ZM92.25,29.365a28.036,28.036,0,0,0,5.248,0,8.308,8.308,0,0,0,3.4-.861C98.113,28.668,94.5,28.5,92.25,29.365Z" transform="translate(0.214 -5.434)" fill="#242422"/></g></g><g transform="translate(59.958 4520.649)"><g transform="translate(499.042 9.763)"><path d="M84.522,8.212c0,4.178-.417,17.127-.417,17.127,0,2.506.836,3.62,3.2,3.62v1.106H77.985V28.959a3.182,3.182,0,0,0,3.62-3.62l.828-21.172a3.144,3.144,0,0,0-3.2-2.37V.825h7.1L93.851,20.6,101.51.825h6.4V1.8a2.443,2.443,0,0,0-2.784,2.778l.836,20.467c0,3.064.556,3.9,3.062,3.9v1.106H98.307V28.943c2.089,0,3.062-.7,2.925-3.9,0,0-.417-14.343-.556-16.849L95.524,22.4a53,53,0,0,0-1.95,6.126l-1.67.139c-.419-1.533-1.533-4.317-1.533-4.317s-4.32-12.1-5.85-16.135Z" transform="translate(14.204 0.15)" fill="#242422" fill-rule="evenodd"/><path d="M79.613,30.311a6.768,6.768,0,0,0-1.672-.139c-1.106,0-3.062.556-5.431.556-9.051,0-15.735-5.431-15.735-15.455C56.776,6.78,63.043.235,72.65.235a19.1,19.1,0,0,1,6.823,1.253c.417-.417.556-.7.975-1.106h.836c-.141,1.533-.7,6.545-.7,6.545h-.836C79.195,4,77.662,2.054,72.789,2.054c-5.846,0-11.138,4.595-11.138,13.09,0,9.607,5.431,13.785,11.418,13.785a8.573,8.573,0,0,0,7.8-5.011l.975.416L79.615,30.32Z" transform="translate(10.34 0.043)" fill="#242422" fill-rule="evenodd"/><path d="M57.092,6.383h-.975c-.139-2.645-.975-3.476-3.062-3.476H49.016V24.762c0,3.62.7,4.317,3.062,4.317v1.106H41.637V29.078c2.37,0,3.062-.7,3.062-4.456V2.9H40.66c-2.645,0-3.062.7-3.759,3.476h-.973l.7-6.262.7.139c.28.7.836.7,2.506.7H53.335c2.506,0,3.062,0,3.62-.836h.836l-.7,6.265Z" transform="translate(6.542 0.021)" fill="#242422" fill-rule="evenodd"/><path d="M30.212,30.869a13.287,13.287,0,0,1-4.595-.7,8,8,0,0,1-2.37-.975,7.476,7.476,0,0,0-.975,1.253l-.836-.28.7-6.543.975.139c.556,3.062,2.645,5.29,6.962,5.29a5.646,5.646,0,0,0,5.57-5.846c0-2.506-.975-3.759-4.317-6.267a26.69,26.69,0,0,1-2.925-1.95c-3.069-1.948-5.011-4.176-5.011-7.8,0-4.178,3.476-6.962,8.076-6.962a10.49,10.49,0,0,1,4.873,1.106L37.311.236l.7.139-.7,5.987-.975-.139c0-2.786-1.672-4.037-4.456-4.037-2.645,0-4.595,1.392-4.595,4.037,0,2.37,1.809,3.9,3.9,5.29,1.106.7,1.95,1.253,2.786,1.809,4.873,3.476,5.987,5.709,5.987,9.049,0,4.876-3.758,8.5-9.745,8.5Z" transform="translate(3.903 0.043)" fill="#242422" fill-rule="evenodd"/><path d="M18.241,6.4H17.135c0-2.506-1.114-3.476-3.342-3.476H7.52v11h4.037c2.089,0,2.506-1.106,2.786-2.925h.973v7.8h-.973c-.28-2.089-.7-2.925-2.925-2.925H7.52V25.2c0,3.476.836,3.9,3.062,3.9v1.106H0V29.1c2.645,0,3.062-.7,3.062-3.9V4.74c0-1.95-.836-2.786-3.062-2.786V.975H14.48c2.506,0,3.059-.139,3.483-.975h.975Z" transform="translate(0)" fill="#242422" fill-rule="evenodd"/><path d="M147.035,7.926V24.634c0,3.62.836,4.317,3.062,4.317v1.106H133.664V28.951c1.253,0,2.37-.417,2.37-1.253a10.32,10.32,0,0,0-.417-2.506l-1.253-4.037h-9.19a45.461,45.461,0,0,0-1.809,6.4c0,1.114,1.253,1.392,2.089,1.392v1.106h-7.659V28.951c1.392,0,2.506-.139,3.476-3.062l7.1-22.7a2.092,2.092,0,0,0-1.95-1.392V.825h6.267l7.52,23.811c.7,2.506,1.392,3.759,2.506,4.317,1.672-.556,2.089-1.114,2.089-4.317V4.578c-1.253-1.672-1.392-2.786-3.759-2.786V.825h7.1l11.693,19.909V5.565c0-3.064-.7-3.759-3.062-3.759V.825h15.6V1.8c-.975,0-1.809.417-1.809,1.392a7.473,7.473,0,0,0,.556,2.228l4.456,9.609,4.317-9.323a5.056,5.056,0,0,0,.836-2.645c0-.836-.556-1.253-1.809-1.253V.825h7.379V1.8c-1.809,0-2.925,1.67-3.759,3.62l-5.709,11.693v7.659c0,3.342.836,4.178,3.062,4.178v1.106H169.3V28.95c2.228,0,3.062-.836,3.062-4.178v-6.54L166.237,5.275c-1.114-2.506-1.533-3.062-2.228-3.476-1.392.556-1.809,1.533-1.809,3.759V27s.139,1.672.28,3.62l-1.809.139Zm-17.4-1.392-3.9,12.671h8.076Z" transform="translate(21.451 0.15)" fill="#242422" fill-rule="evenodd"/><path d="M114.68,19.2h-2.089V25.19c0,3.062.836,3.759,3.2,3.759v1.106H105.073V28.95c2.228,0,3.062-.836,3.062-3.9V5.42c0-3.062-.836-3.62-3.062-3.62V.825h8.076c7.8,0,12.393,2.37,12.393,8.773,0,6.684-5.57,9.607-10.862,9.607ZM113.288,2.77h-.7V17.113h1.253c4.595,0,6.962-2.089,6.962-7.379s-2.089-6.962-7.52-6.962Z" transform="translate(19.135 0.15)" fill="#242422" fill-rule="evenodd"/><path d="M73.47,23.68a8.627,8.627,0,0,1-8.912-9.19A8.863,8.863,0,0,1,73.47,5.3a8.752,8.752,0,0,1,8.773,9.19,8.921,8.921,0,0,1-8.773,9.19Zm0-16.708c-3.62,0-4.873,3.476-4.873,7.52,0,3.761,1.114,7.52,4.873,7.52,3.62,0,4.74-3.759,4.74-7.659,0-3.759-1.392-7.379-4.74-7.379Z" transform="translate(11.749 0.965)" fill="#242422" fill-rule="evenodd"/><path d="M21.72,22.117v-.975c1.392,0,1.67-.417,1.67-.836a4.108,4.108,0,0,0-.28-1.392s-.28-1.106-.556-1.95H17.123l-.556,1.809a4.108,4.108,0,0,0-.28,1.392c0,.556.556.975,1.392.975v.975H12.25v-.973c1.392,0,1.95-.417,2.506-1.95l4.178-12.53a1.277,1.277,0,0,0-1.392-.975V4.712H22c3.62,10.587,4.595,13.366,4.595,13.366.7,2.37,1.392,3.062,2.506,3.062v.975ZM19.77,8.61l-2.089,6.828H22L19.77,8.615Z" transform="translate(2.23 0.858)" fill="#242422" fill-rule="evenodd"/></g></g></g></svg>