<?xml version="1.0" encoding="utf-8"?>
<!-- Generator: Adobe Illustrator 23.0.6, SVG Export Plug-In . SVG Version: 6.00 Build 0)  -->
<svg version="1.1" id="Layer_1" xmlns="http://www.w3.org/2000/svg" xmlns:xlink="http://www.w3.org/1999/xlink" x="0px" y="0px"
	 viewBox="0 0 120 145.6" style="enable-background:new 0 0 120 145.6;" xml:space="preserve">
<style type="text/css">
	.st0{fill:#242422;}
</style>
<g transform="translate(1033.39 2853.14)">
	<g transform="translate(0 0)">
		<path class="st0" d="M-955.4-2798.5c0.5-0.1,1.1-0.1,1.6,0c0.3-1,0.3-2,0.1-3c-0.4-1.8-0.9-2.9-2-2.7c-1.1,0.2-1.1,1.5-0.7,3.3
			C-956.3-2800-956-2799.2-955.4-2798.5z"/>
		<path class="st0" d="M-964.5-2797c0.8,0.3,1.2,0.6,1.4,0.4c0.1-0.1,0.1-0.3-0.1-0.6c-0.5-0.7-1.2-1.3-2-1.6
			c-1.7-0.7-3.7-0.5-5.2,0.6c-0.5,0.4-1,0.9-0.9,1.2c0,0.1,0.1,0.2,0.3,0.2c1.2-0.3,2.4-0.6,3.6-0.8
			C-966.5-2797.7-965.5-2797.5-964.5-2797z"/>
		<path class="st0" d="M-966.1-2796.2c-0.7,0.1-1.3,0.3-1.9,0.8c-0.3,0.2-0.4,0.4-0.5,0.8c0,0.1,0,0.1,0.1,0.2c0,0,0.1,0.1,0.2,0.1
			c0.2,0,0.5-0.1,0.7-0.2c1-0.4,2.1-0.5,3.2-0.3c0.5,0.1,0.7,0.1,0.8-0.1c0.1-0.1,0-0.2,0-0.3
			C-964.2-2796-965.1-2796.3-966.1-2796.2z"/>
		<path class="st0" d="M-958.5-2793c0.5,0.4,1.3,0.2,1.7-0.3c0.2-0.5-0.1-1.2-0.8-1.5c-0.4-0.4-1.1-0.4-1.5,0
			c-0.4,0.4-0.4,1.1,0,1.5C-958.9-2793.1-958.7-2793-958.5-2793L-958.5-2793z"/>
		<path class="st0" d="M-954.2-2796.7c-0.5,0-1,0.6-1,1.3s0.4,1.4,1,1.4c0.5,0,1-0.6,1-1.3S-953.7-2796.7-954.2-2796.7z"/>
		<path class="st0" d="M-990.8-2783.2c-0.1-0.2-0.4-0.1-0.6-0.1c-0.2,0-0.3,0.1-0.5,0.1c-0.4,0-0.7-0.2-0.9-0.5
			c-0.2-0.5-0.2-1.1,0-1.6c0-0.1,0.1-0.2,0.1-0.3c0.4-1,1.2-2.6,0.3-4.2c-0.5-1.1-1.6-1.9-2.8-2.1c-1.2-0.1-2.3,0.3-3.1,1.1
			c-0.9,1-1.4,2.4-1.2,3.8c0.1,0.2,0.2,0.3,0.3,0.3c0.2,0,0.5-0.1,0.7-0.6c0,0,0-0.1,0.1-0.2c0.1-0.4,0.3-0.8,0.5-1.2
			c0.3-0.5,0.8-0.8,1.4-0.9c0.6-0.1,1.2,0,1.7,0.3c0.8,0.6,1.2,1.6,0.8,2.6c-0.3,0.7-0.4,1.5-0.4,2.3c0,1.2,0.8,2.2,2,2.3
			c0.7,0.1,1.3-0.3,1.6-0.8C-990.7-2783-990.7-2783.1-990.8-2783.2z"/>
		<path class="st0" d="M-940.4-2786.2c0-0.1-0.2-0.9-0.5-1.9c-0.2-0.6-0.4-1.1-0.6-1.6c0.9-1.2,1.3-2.8,1.1-4.3
			c-0.2-1.2-0.7-2.2-1.6-3.1c-1.6-1.4-3.5-2.3-5.6-2.8c-0.3-0.1-1.3-0.4-1.4-0.4c0-0.1-0.1-3.3-0.1-4.8c0-1.4-0.2-2.8-0.6-4.2
			c-0.5-2-1.5-3.7-2.9-5.2c3.5-3.7,5.7-7.7,5.7-11.2c0-6.7-8.2-8.7-18.3-4.5c0,0-2.1,0.9-2.1,0.9c0,0-3.9-3.8-3.9-3.8
			c-11.5-10-47.4,29.9-35.9,39.6l2.5,2.1c-0.7,1.8-0.9,3.8-0.7,5.7c0.3,2.8,1.7,5.4,3.9,7.2c2.1,1.9,4.8,3,7.6,3.1
			c4.5,10.3,14.7,16.6,26.6,17c12.8,0.4,23.6-5.6,28.1-16.5c0.9-2.3,1.4-4.7,1.5-7.2C-937.6-2785-939.4-2786.2-940.4-2786.2z
			 M-993-2778.1c-0.4,0.1-0.8,0.1-1.2,0.1c-3.9-0.1-8.1-3.6-8.5-7.7c-0.5-4.6,1.9-8.1,6-8.9c0.6-0.1,1.2-0.2,1.7-0.1
			c2.3,0.1,5.7,1.9,6.5,7C-987.7-2783.4-988.8-2778.8-993-2778.1L-993-2778.1z M-997.3-2797.4c-2.5,0.5-4.8,1.9-6.2,4
			c-1-0.8-1.9-1.6-2.7-2.6c-2.2-4.2,2.4-12.4,5.7-17c8-11.4,20.6-20.1,26.4-18.5c0.9,0.3,4.1,3.9,4.1,3.9c-3.9,2.3-7.7,4.8-11.2,7.7
			C-988.6-2814.4-994-2806.2-997.3-2797.4L-997.3-2797.4z M-956.6-2779.8c0.1,0,0.1-0.1,0.1-0.2c0-0.1-0.1-0.2-0.2-0.2
			c-4,0.5-8,0.1-11.8-1.2c0.6-2,2.3-1.3,4.8-1.1c3.9,0.2,7.8-0.2,11.6-1.3c3.1-0.9,6.1-2.4,8.7-4.3c0.6,1.3,1,2.7,1.2,4.1
			c0.4-0.1,0.9,0,1.3,0.2c0.5,0.3,0.9,1,0.7,2.8c-0.5,3.3-2.1,6.3-4.4,8.6c-1.5,1.6-3.3,3-5.3,4c-1.1,0.6-2.3,1.1-3.5,1.5
			c-9.1,3-18.4-0.3-21.4-7.3c-0.2-0.5-0.4-1.1-0.6-1.7c-1.3-4.8-0.1-10,3.2-13.7l0,0c0.2-0.2,0.4-0.5,0.4-0.8c0-0.3-0.1-0.6-0.3-0.8
			c-1.2-1.7-5.3-4.7-4.5-10.3c0.6-4.1,4.2-7,7.5-6.8c0.3,0,0.6,0,0.8,0c1.4,0.1,2.7,0.3,3.9,0.3c2.2,0.2,4.3-0.5,5.9-2
			c0.6-0.6,1.4-1.1,2.2-1.3c0.3-0.1,0.6-0.1,0.9-0.1c0.5,0,1,0.2,1.5,0.5c1.7,1.1,1.9,3.9,2,5.9c0,1.1,0.2,3.9,0.2,4.7
			c0.1,1.8,0.6,2.1,1.5,2.4c0.5,0.2,1,0.3,1.8,0.5c1.6,0.3,3.1,1,4.4,2.1c0.4,0.4,0.7,1,0.8,1.6c0.3,1.9-1.5,4.3-6.2,6.5
			c-4.9,2.1-10.3,3-15.6,2.5l-1.5-0.2c-3.4-0.5-5.4,4-3.3,7c1.3,2,4.9,3.2,8.5,3.2c8.3,0,14.6-3.5,17-6.6c0.1-0.1,0.1-0.2,0.2-0.3
			c0.1-0.2,0-0.3-0.1-0.2c-1.9,1.3-10.5,6.6-19.7,5c-0.7-0.1-1.4-0.3-2.1-0.6c-0.8-0.3-2.5-1.1-2.7-2.8
			C-961.3-2777.7-956.6-2779.8-956.6-2779.8L-956.6-2779.8z M-968.3-2781.2L-968.3-2781.2L-968.3-2781.2z M-982.5-2813.1
			c2.7-3.1,5.9-5.8,9.5-7.8c0.1,0,0.1,0,0.2,0.1c0,0,0,0.1,0,0.1c-0.4,0.7-0.7,1.4-0.9,2.2c0,0.1,0,0.1,0.1,0.2c0,0,0.1,0,0.1,0
			c2.5-1.6,5.4-2.6,8.3-2.9c0.1,0,0.1,0,0.1,0.1c0,0,0,0.1-0.1,0.1c-0.5,0.4-0.9,0.8-1.3,1.3c0,0.1,0,0.1,0,0.2c0,0,0,0,0.1,0
			c2.4,0.1,4.8,0.7,7,1.8c0.1,0.1,0,0.3-0.1,0.3c-4.2-0.9-8.5-0.9-12.6,0c-3.7,0.8-7.2,2.4-10.2,4.5c-0.1,0.1-0.1,0.1-0.2,0
			C-982.6-2812.9-982.6-2813-982.5-2813.1L-982.5-2813.1z"/>
	</g>
	<g transform="translate(0.184 85.615)">
		<path class="st0" d="M-999.1-2831.9c-1.1,0.1-2.1,0.8-2.4,1.8c-0.2,0.4-0.2,0.7-0.4,0.7c-0.2,0-0.1-0.3-0.2-0.9
			c-0.3-1-1.2-1.7-2.3-1.7c-1.1,0.1-2.1,0.9-2.4,1.9c-0.2,0.5-0.2,0.6-0.4,0.6c-0.2,0,0-0.4,0.1-0.8c0.1-0.5,0.1-1,0-1.5h-2.4v8.9
			h3.2v-4.4c0-0.9,0.4-2,1-2c0.7,0,0.9,0.6,0.9,1.6v4.8h3.2v-4.4c0-0.8,0.3-2,1-2c0.7,0,0.9,0.8,0.9,1.6v4.8h3.2v-5.2
			C-996.2-2830.4-997-2831.9-999.1-2831.9z"/>
		<path class="st0" d="M-944.6-2831.9c-1.1,0.1-2.1,0.8-2.4,1.8c-0.2,0.4-0.2,0.7-0.4,0.7c-0.2,0-0.1-0.4-0.2-0.9
			c-0.3-1-1.2-1.8-2.3-1.7c-1.1,0.1-2.1,0.9-2.4,1.9c-0.2,0.5-0.2,0.6-0.4,0.6c-0.2,0,0-0.4,0.1-0.8c0.1-0.5,0.1-1,0-1.5h-2.4v8.9
			h3.2v-4.4c0-0.9,0.4-2,1-2c0.7,0,0.9,0.6,0.9,1.6v4.8h3.2v-4.4c0-0.8,0.3-2,1-2c0.7,0,0.9,0.8,0.9,1.6v4.8h3.2v-5.2
			C-941.7-2830.4-942.5-2831.9-944.6-2831.9z"/>
		<path class="st0" d="M-990.7-2831.9c-1.5,0-2.9,0.3-4.2,0.9v2.7c1.1-0.6,2.3-1,3.5-1.1c1.3,0,1.4,0.7,1.4,1.2
			c-0.5-0.1-1-0.1-1.5-0.1c-2.6,0-3.9,1.2-3.9,3.1c0,1.4,1.1,2.6,2.5,2.6c0.1,0,0.1,0,0.2,0c1.2,0,2.4-0.7,2.9-1.8
			c0.2-0.4,0.2-0.7,0.4-0.7c0.2,0,0.1,0.2,0.1,0.6c0,0.6,0,1.1,0.1,1.7h2.4v-4.4C-986.8-2830-987.8-2831.9-990.7-2831.9z
			 M-991.5-2824.9c-0.8,0.2-1.2-0.1-1.2-0.6c0-0.7,0.7-1,1.8-1c0.5,0,0.9,0,0.9,0C-990.2-2825.7-990.8-2825.2-991.5-2824.9
			L-991.5-2824.9z"/>
		<rect x="-981.5" y="-2834.4" class="st0" width="3.2" height="11.5"/>
		<path class="st0" d="M-974.8-2827.3c0-0.8,0.7-1.5,2.1-1.5c1,0,2.1,0.3,2.9,0.9v-3.1c-0.9-0.7-2.1-1-3.2-0.9
			c-2.3-0.2-4.3,1.5-4.5,3.8c0,0.2,0,0.4,0,0.7c0,3.1,1.8,4.8,4.5,4.8c1.2,0,2.3-0.4,3.3-1.1v-2.9c-0.9,0.6-1.9,0.9-2.9,1
			C-974.2-2825.8-974.8-2826.5-974.8-2827.3z"/>
		<path class="st0" d="M-963.2-2831.9c-1.2,0.1-2.3,0.9-2.7,2.1c-0.1,0.3-0.2,0.5-0.3,0.5c-0.2,0-0.1-0.4,0-0.6c0.3-1,0.5-2,0.5-3.1
			c0-0.4,0-0.9-0.1-1.3h-2.8v11.5h3.2v-4.4c0-0.7,0.3-2,1.1-2c0.7,0,0.9,0.5,0.9,1.5v4.9h3.2v-4.7
			C-960.3-2829.8-960.7-2831.9-963.2-2831.9z"/>
		<path class="st0" d="M-959.3-2831.7v8.8h3.2v-8.8c-0.5,0.2-1,0.3-1.6,0.3C-958.2-2831.4-958.8-2831.5-959.3-2831.7z"/>
		<ellipse class="st0" cx="-957.7" cy="-2833.2" rx="2" ry="1.3"/>
		<path class="st0" d="M-985.8-2831.7v8.8h3.2v-8.8c-0.5,0.2-1,0.3-1.6,0.3C-984.7-2831.4-985.3-2831.5-985.8-2831.7z"/>
		<ellipse class="st0" cx="-984.2" cy="-2833.2" rx="2" ry="1.3"/>
		<path class="st0" d="M-935.3-2831.9c-1.2,0-2.3,0.8-2.7,1.9c-0.2,0.5-0.2,0.6-0.4,0.6c-0.2,0,0-0.4,0.1-0.8c0.1-0.5,0.1-1,0-1.5
			h-2.4v11.3h3.2v-3.6c0.4,0.8,1.3,1.3,2.2,1.3c2.3,0,3.5-2,3.5-4.6C-931.7-2830.3-933.1-2831.9-935.3-2831.9z M-936.2-2824.8
			c-0.7,0-1.3-0.9-1.3-2.2c0-1.3,0.6-2.2,1.3-2.2c0.9,0,1.3,0.8,1.3,2.2C-934.9-2825.5-935.3-2824.8-936.2-2824.8L-936.2-2824.8z"/>
	</g>
</g>
<path class="st0" d="M46.6,123.1c0-0.7-0.2-1.9-2.3-1.9h-2v5.4h1.4V125h0.7C46.5,125,46.6,123.9,46.6,123.1z M45.3,123.1
	c0,0.3-0.1,0.8-0.9,0.8h-0.7v-1.5h0.7C45.2,122.4,45.3,122.8,45.3,123.1L45.3,123.1z M52.7,126.6l-1.9-5.4h-1.7l-1.9,5.4h1.4
	l0.3-0.9H51l0.3,0.9L52.7,126.6z M50.7,124.7h-1.5l0.7-2.3L50.7,124.7z M58.4,126.7l-1.7-2c0.8,0,1.5-0.6,1.5-1.4c0-0.1,0-0.1,0-0.2
	c0-0.7-0.2-1.8-2.3-1.8h-2.1v5.4h1.4v-2l1.5,2H58.4z M56.8,123.1c0,0.3-0.2,0.7-0.9,0.7h-0.7v-1.4h0.7
	C56.6,122.4,56.8,122.7,56.8,123.1z M63.2,122.4v-1.1h-4v1.1h1.4v4.3h1.3v-4.3H63.2z M69.5,126.7v-5.4h-1.4v3.4l-2-3.4h-1.7v5.4h1.4
	v-3.4l2,3.4H69.5z M75.1,126.7v-1.1h-2.5v-1.1h2.3v-1.1h-2.3v-1h2.5v-1.1h-3.9v5.4H75.1z M81.1,126.7l-1.7-2c0.8,0,1.5-0.6,1.5-1.4
	c0-0.1,0-0.1,0-0.2c0-0.7-0.2-1.8-2.3-1.8h-2.1v5.4h1.4v-2l1.5,2H81.1z M79.5,123.1c0,0.3-0.2,0.7-0.9,0.7h-0.7v-1.4h0.7
	C79.3,122.4,79.5,122.7,79.5,123.1z"/>
</svg>
